# AST/ASF file generated using VICON BodyLanguage
# -----------------------------------------------
:version 1.10
:name VICON
:units
  mass 1.0
  length 0.45
  angle deg
:documentation
   .ast/.asf automatically generated from VICON data using
   VICON BodyBuilder and BodyLanguage model FoxedUp or BRILLIANT.MOD
:root
   order TX TY TZ RX RY RZ
   axis XYZ
   position 0 0 0  
   orientation 0 0 0 
:bonedata
  begin
     id 1 
     name lhipjoint
     direction 0.561001 -0.76473 0.316963 
     length 2.4722 
     axis 0 0 0  XYZ
  end
  begin
     id 2 
     name lfemur
     direction 0.34202 -0.939693 0  
     length 7.59403  
     axis 0 0 20  XYZ
    dof rx ry rz
    limits (-160.0 20.0)
           (-70.0 70.0)
           (-60.0 70.0)
  end
  begin
     id 3 
     name ltibia
     direction 0.34202 -0.939693 0   
     length 7.89655   
     axis 0 0 20   XYZ
    dof rx
    limits (-10.0 170.0)
  end
  begin
     id 4 
     name lfoot
     direction 0.061296 -0.168409 0.98381   
     length 2.73287   
     axis -90 7.62852e-016 20   XYZ
    dof rx rz
    limits (-45.0 90.0)
           (-70.0 20.0)
  end
  begin
     id 5 
     name ltoes
     direction 1.53547e-011 -4.21984e-011 1   
     length 1.37057   
     axis -90 7.62852e-016 20   XYZ
    dof rx
    limits (-90.0 20.0)
  end
  begin
     id 6 
     name rhipjoint
     direction -0.559611 -0.765599 0.317323   
     length 2.46939  
     axis 0 0 0  XYZ 
  end
  begin
     id 7 
     name rfemur
     direction -0.34202 -0.939693 0   
     length 7.53712   
     axis 0 0 -20   XYZ
    dof rx ry rz
    limits (-160.0 20.0)
           (-70.0 70.0)
           (-70.0 60.0)
  end
  begin
     id 8 
     name rtibia
     direction -0.34202 -0.939693 0   
     length 8.12549   
     axis 0 0 -20   XYZ
    dof rx
    limits (-10.0 170.0)
 end
 begin
     id 9 
     name rfoot
     direction -0.066984 -0.184037 0.980634   
     length 2.67541  
     axis -90 -7.62852e-016 -20   XYZ
    dof rx rz
    limits (-45.0 90.0)
           (-20.0 70.0)
  end
  begin
     id 10 
     name rtoes
     direction -1.53549e-011 -4.21786e-011 1   
     length 1.34085   
     axis -90 -7.62852e-016 -20   XYZ
    dof rx
    limits (-90.0 20.0)
  end
  begin
     id 11 
     name lowerback
     direction -0.0522728 0.992594 -0.109658   
     length 2.05633   
     axis 0 0 0   XYZ
    dof rx ry rz
    limits (-20.0 45.0)
           (-30.0 30.0)
           (-30.0 30.0)
  end
  begin
     id 12 
     name upperback
     direction 0.00589338 0.999977 0.00335704   
     length 2.05845   
     axis 0 0 0   XYZ
    dof rx ry rz
    limits (-20.0 45.0)
           (-30.0 30.0)
           (-30.0 30.0)
  end
  begin
     id 13 
     name thorax
     direction 0.0292928 0.998059 0.0549487   
     length 2.09281   
     axis 0 0 0   XYZ
    dof rx ry rz
    limits (-20.0 45.0)
           (-30.0 30.0)
           (-30.0 30.0)
  end
  begin
     id 14 
     name lowerneck
     direction 0.0356368 0.980775 0.191858   
     length 1.84767   
     axis 0 0 0   XYZ
    dof rx ry rz
    limits (-20.0 45.0)
           (-30.0 30.0)
           (-30.0 30.0)
  end
  begin
     id 15 
     name upperneck
     direction -0.0227605 0.98931 -0.14404   
     length 1.89582   
     axis 0 0 0   XYZ
    dof rx ry rz
    limits (-20.0 45.0)
           (-30.0 30.0)
           (-30.0 30.0)
  end
  begin
     id 16
     name head
     direction -0.00932985 0.997511 -0.0698904  
     length 1.90213  
     axis 0 0 0   XYZ
    dof rx ry rz
    limits (-20.0 45.0)
           (-30.0 30.0)
           (-30.0 30.0)
  end
  begin
     id 17 
     name lclavicle
     direction 0.873442 0.479511 0.0846686  
     length 3.41193  
     axis 0 0 0   XYZ
    dof ry rz
    limits (-20.0 10.0)
           (0.0 20.0)
  end
  begin
     id 18 
     name lhumerus
     direction 1 -4.4897e-011 -5.62117e-018   
     length 5.59864   
     axis 180 -30 -90   XYZ
    dof rx ry rz
    limits (-60.0 90.0)
           (-90.0 90.0)
           (-90.0 90.0)
  end
  begin
     id 19
     name lradius
     direction 1 -4.48966e-011 -6.26295e-027   
     length 3.59542   
     axis 180 -30 -90   XYZ
    dof rx
    limits (-10.0 170.0)
  end
  begin
     id 20
     name lwrist
     direction 1 -4.48947e-011 -1.74096e-026   
     length 1.79771   
     axis 1.04567e-014 90 90   XYZ
    dof ry
    limits (-180.0 0.0)
 end
  begin
     id 21 
     name lhand
     direction 1 -4.49085e-011 -3.48469e-026   
     length 0.572014   
     axis 2.22196e-014 90 90   XYZ
    dof rx rz
    limits (-90.0 90.0)
           (-45.0 45.0)
  end
  begin
     id 22 
     name lfingers
     direction 1 -4.48884e-011 -6.96135e-026   
     length 0.461173   
     axis 4.44383e-014 90 90   XYZ
    dof rx
    limits (0.0 90.0)
  end
  begin
     id 23
     name lthumb
     direction 0.707107 -6.34976e-011 0.707107   
     length 0.662154   
     axis -90 45 -5.4397e-014   XYZ
    dof rx rz
    limits (-45.0 45.0)
           (-45.0 45.0)
  end
  begin
     id 24 
     name rclavicle
     direction -0.890242 0.443271 0.104786   
     length 3.46753  
     axis 0 0 0   XYZ 
    dof ry rz
    limits (-10.0 20.0)
           (-20.0 0.0)
  end
  begin
     id 25 
     name rhumerus
     direction -1 -4.48963e-011 -5.41723e-018  
     length 5.8094   
     axis 180 30 90   XYZ
    dof rx ry rz
    limits (-90.0 60.0)
           (-90.0 90.0)
           (-90.0 90.0)
  end
  begin
     id 26 
     name rradius
     direction -1 -4.48958e-011 -6.51059e-027   
     length 3.66953   
     axis 180 30 90   XYZ
    dof rx
    limits (-10.0 170.0)
  end
  begin
     id 27 
     name rwrist
     direction -1 -4.48975e-011 -1.74124e-026   
     length 1.83476   
     axis 1.04567e-014 -90 -90   XYZ
    dof ry
    limits (-180.0 0.0)
  end
  begin
     id 28
     name rhand
     direction -1 -4.49013e-011 -3.48326e-026   
     length 0.57843   
     axis 2.22196e-014 -90 -90   XYZ
    dof rx rz
    limits (-90.0 90.0)
           (-45.0 45.0)
  end
  begin
     id 29
     name rfingers
     direction -1 -4.49023e-011 -6.9669e-026   
     length 0.466345   
     axis 4.44383e-014 -90 -90   XYZ
    dof rx
    limits (0.0 90.0)
  end
  begin
     id 30
     name rthumb
     direction -0.707107 -6.34926e-011 0.707107   
     length 0.669581   
     axis -90 -45 5.4397e-014   XYZ
    dof rx rz
    limits (-45.0 45.0)
           (-45.0 45.0)
  end
:hierarchy
  begin
    root lhipjoint rhipjoint lowerback
    lhipjoint lfemur
    lfemur ltibia
    ltibia lfoot
    lfoot ltoes
    rhipjoint rfemur
    rfemur rtibia
    rtibia rfoot
    rfoot rtoes
    lowerback upperback
    upperback thorax
    thorax lowerneck lclavicle rclavicle
    lowerneck upperneck
    upperneck head
    lclavicle lhumerus
    lhumerus lradius
    lradius lwrist
    lwrist lhand lthumb
    lhand lfingers
    rclavicle rhumerus
    rhumerus rradius
    rradius rwrist
    rwrist rhand rthumb
    rhand rfingers
  end

#!OML:ASF H:\SkateBoarding\Project 1\Capture day 1\Session 1\Skater.ASF
:FULLY-SPECIFIED
:DEGREES
272
root 4.50574 19.4138 36.2728 0.471657 44.9776 -6.12343
lowerback 8.47569 0.619475 -4.0691
upperback -0.547523 0.430268 0.310034
thorax -5.36725 0.333831 2.55812
lowerneck -7.64944 -0.962633 0.180614
upperneck 45.1341 6.01886 -12.4764
head 19.1443 1.41412 -4.99176
rclavicle -1.47101e-014 4.77083e-015
rhumerus -26.3042 -15.5914 -74.995
rradius 27.3602
rwrist 4.82353
rhand -29.2073 -3.76808
rfingers 7.12502
rthumb -2.55196 -33.7326
lclavicle -1.47101e-014 4.77083e-015
lhumerus -20.9164 -11.6719 81.7245
lradius 33.8588
lwrist 16.9878
lhand -7.64565 10.5606
lfingers 7.12502
lthumb 18.2498 39.7245
rfemur -20.5062 -4.74461 27.3919
rtibia 31.7438
rfoot -21.8808 11.7633
rtoes -0.795411
lfemur -17.1671 -21.1035 0.547511
ltibia 31.0829
lfoot -44.9136 15.3523
ltoes -19.9713
273
root 4.43237 19.4255 36.3466 0.620237 45.0452 -5.88796
lowerback 8.47591 0.634247 -3.95907
upperback -0.537777 0.462729 0.33642
thorax -5.35862 0.346763 2.51948
lowerneck -7.6307 -0.951401 0.227655
upperneck 45.1823 6.00964 -12.4192
head 19.1661 1.43006 -4.97625
rclavicle -1.03865e-013 3.18055e-015
rhumerus -26.294 -15.8596 -74.4567
rradius 27.2128
rwrist 4.95267
rhand -29.4792 -3.91617
rfingers 7.12502
rthumb -2.81449 -33.8773
lclavicle -1.03865e-013 3.18055e-015
lhumerus -20.7524 -11.9205 81.4265
lradius 34.2944
lwrist 17.3567
lhand -8.77184 10.5327
lfingers 7.12502
lthumb 17.1661 39.7944
rfemur -20.4334 -4.80395 27.1584
rtibia 31.5932
rfoot -21.9357 11.5846
rtoes -0.852348
lfemur -17.1316 -21.0415 0.361867
ltibia 30.7985
lfoot -44.6193 15.1826
ltoes -19.929
274
root 4.35936 19.4376 36.4193 0.76913 45.108 -5.64724
lowerback 8.47757 0.65598 -3.85052
upperback -0.528714 0.504025 0.358943
thorax -5.35206 0.364108 2.47647
lowerneck -7.61206 -0.945302 0.273974
upperneck 45.2323 5.98639 -12.3485
head 19.186 1.44172 -4.95602
rclavicle -8.7664e-014 -7.95139e-016
rhumerus -26.2909 -16.1241 -73.9238
rradius 27.0803
rwrist 5.04168
rhand -29.7374 -4.08556
rfingers 7.12502
rthumb -3.06387 -34.0433
lclavicle -8.7664e-014 -7.95139e-016
lhumerus -20.5907 -12.1619 81.1256
lradius 34.7385
lwrist 17.745
lhand -9.93183 10.501
lfingers 7.12502
lthumb 16.0493 39.8563
rfemur -20.353 -4.84546 26.9157
rtibia 31.4334
rfoot -21.9954 11.3947
rtoes -0.88667
lfemur -17.0883 -20.9949 0.169132
ltibia 30.5023
lfoot -44.3153 15.0155
ltoes -19.8776
275
root 4.28665 19.4497 36.491 0.916762 45.169 -5.40316
lowerback 8.47995 0.682401 -3.74492
upperback -0.52056 0.551001 0.377436
thorax -5.34715 0.38434 2.43014
lowerneck -7.59176 -0.943708 0.324484
upperneck 45.2821 5.94967 -12.2678
head 19.2025 1.44978 -4.93346
rclavicle 8.94531e-015 -1.59028e-015
rhumerus -26.2969 -16.3794 -73.4033
rradius 26.9657
rwrist 5.0856
rhand -29.9808 -4.27311
rfingers 7.12502
rthumb -3.29892 -34.2273
lclavicle 8.94531e-015 -1.59028e-015
lhumerus -20.4282 -12.3894 80.8199
lradius 35.1836
lwrist 18.1499
lhand -11.0969 10.4654
lfingers 7.12502
lthumb 14.9272 39.9075
rfemur -20.2629 -4.87419 26.6669
rtibia 31.2649
rfoot -22.0637 11.195
rtoes -0.913121
lfemur -17.0396 -20.9614 -0.0286878
ltibia 30.1986
lfoot -44.0018 14.8544
ltoes -19.8229
276
root 4.21435 19.4619 36.5616 1.06429 45.2222 -5.15745
lowerback 8.48016 0.711007 -3.64241
upperback -0.514294 0.600568 0.39499
thorax -5.34307 0.405976 2.38424
lowerneck -7.5709 -0.942378 0.370817
upperneck 45.3314 5.90958 -12.179
head 19.2174 1.45662 -4.90638
rclavicle -6.63941e-014 7.15625e-015
rhumerus -26.3093 -16.6099 -72.898
rradius 26.8712
rwrist 5.09332
rhand -30.2016 -4.48061
rfingers 7.12502
rthumb -3.5121 -34.4314
lclavicle -6.63941e-014 7.15625e-015
lhumerus -20.2702 -12.5841 80.5114
lradius 35.6275
lwrist 18.5662
lhand -12.2428 10.4272
lfingers 7.12502
lthumb 13.823 39.9479
rfemur -20.166 -4.88415 26.4129
rtibia 31.088
rfoot -22.1386 10.9892
rtoes -0.934767
lfemur -16.9861 -20.937 -0.23126
ltibia 29.8916
lfoot -43.6873 14.7019
ltoes -19.7635
277
root 4.14231 19.4742 36.6312 1.21507 45.2717 -4.90816
lowerback 8.47587 0.737642 -3.54972
upperback -0.51012 0.646744 0.414531
thorax -5.33844 0.426274 2.34642
lowerneck -7.5501 -0.939646 0.407499
upperneck 45.3784 5.87099 -12.0848
head 19.2304 1.46285 -4.87414
rclavicle 6.38099e-014 -1.98785e-014
rhumerus -26.3233 -16.8139 -72.4085
rradius 26.7969
rwrist 5.07129
rhand -30.3933 -4.69768
rfingers 7.12502
rthumb -3.69726 -34.6454
lclavicle 6.38099e-014 -1.98785e-014
lhumerus -20.1183 -12.7328 80.2007
lradius 36.0662
lwrist 18.9874
lhand -13.3519 10.385
lfingers 7.12502
lthumb 12.7539 39.9755
rfemur -20.0638 -4.87778 26.153
rtibia 30.9022
rfoot -22.2203 10.7795
rtoes -0.960175
lfemur -16.9327 -20.9174 -0.439955
ltibia 29.5862
lfoot -43.3709 14.5702
ltoes -19.7289
278
root 4.07062 19.4864 36.7 1.36604 45.3178 -4.65779
lowerback 8.46709 0.761168 -3.46353
upperback -0.508333 0.688246 0.434392
thorax -5.33345 0.444486 2.31323
lowerneck -7.52827 -0.933958 0.437439
upperneck 45.4233 5.83549 -11.9848
head 19.2418 1.46966 -4.8369
rclavicle 4.09496e-014 -4.77083e-015
rhumerus -26.3414 -16.9704 -71.9429
rradius 26.7465
rwrist 5.01008
rhand -30.5529 -4.92284
rfingers 7.12502
rthumb -3.85137 -34.8678
lclavicle 4.09496e-014 -4.77083e-015
lhumerus -19.9784 -12.8354 79.8881
lradius 36.5007
lwrist 19.4152
lhand -14.4128 10.3498
lfingers 7.12502
lthumb 11.7311 40.0013
rfemur -19.9545 -4.85766 25.8904
rtibia 30.7078
rfoot -22.3069 10.5705
rtoes -0.972662
lfemur -16.8771 -20.9012 -0.654178
ltibia 29.2855
lfoot -43.0611 14.4588
ltoes -19.712
279
root 3.9993 19.4986 36.7681 1.51476 45.3609 -4.41151
lowerback 8.45067 0.777152 -3.38824
upperback -0.508565 0.719173 0.460937
thorax -5.32573 0.457873 2.29461
lowerneck -7.50746 -0.921247 0.457425
upperneck 45.4656 5.81386 -11.8866
head 19.2539 1.47996 -4.79617
rclavicle 2.83268e-014 -3.77691e-014
rhumerus -26.356 -17.0661 -71.5045
rradius 26.7175
rwrist 4.92286
rhand -30.697 -5.14555
rfingers 7.12502
rthumb -3.99057 -35.0879
lclavicle 2.83268e-014 -3.77691e-014
lhumerus -19.8569 -12.8757 79.5777
lradius 36.933
lwrist 19.8516
lhand -15.4093 10.3237
lfingers 7.12502
lthumb 10.77 40.0276
rfemur -19.8377 -4.82099 25.6286
rtibia 30.5038
rfoot -22.3993 10.3675
rtoes -0.967076
lfemur -16.8199 -20.8861 -0.870121
ltibia 28.9914
lfoot -42.765 14.3709
ltoes -19.7158
280
root 3.92835 19.5105 36.8356 1.66178 45.4018 -4.16723
lowerback 8.42662 0.785642 -3.32599
upperback -0.510895 0.739315 0.493401
thorax -5.31544 0.466383 2.29099
lowerneck -7.48927 -0.901153 0.466937
upperneck 45.5073 5.80666 -11.7885
head 19.2686 1.49401 -4.75121
rclavicle -4.78077e-014 -9.14409e-015
rhumerus -26.3694 -17.099 -71.0944
rradius 26.712
rwrist 4.81393
rhand -30.8156 -5.3602
rfingers 7.12502
rthumb -4.10508 -35.3004
lclavicle -4.78077e-014 -9.14409e-015
lhumerus -19.7594 -12.863 79.2749
lradius 37.3698
lwrist 20.321
lhand -16.3488 10.3333
lfingers 7.12502
lthumb 9.86367 40.0823
rfemur -19.7121 -4.7729 25.3675
rtibia 30.2896
rfoot -22.4995 10.1683
rtoes -0.966029
lfemur -16.758 -20.8739 -1.08981
ltibia 28.7047
lfoot -42.4931 14.303
ltoes -19.7671
